<?xml version="1.0" encoding="UTF-8"?>
<svg id="Camada_2" data-name="Camada 2" xmlns="http://www.w3.org/2000/svg" viewBox="0 0 20 18.17">
  <defs>
    <style>
      .cls-1 {
        fill: #900;
        fill-rule: evenodd;
        stroke: #fff;
        stroke-miterlimit: 10;
      }
    </style>
  </defs>
  <g id="Shape_1" data-name="Shape 1">
    <g id="Shape_1-2" data-name="Shape 1">
      <path class="cls-1" d="m19.41,5.47c0-2.74-2.22-4.97-4.96-4.97-.96,0-1.84.29-2.6.78v-.04c-.09.06-.16.11-.25.18-.04.03-.09.06-.13.09-.64.48-1.17,1.12-1.51,1.85-.38-.81-.98-1.49-1.7-1.99-.04-.02-.07-.05-.09-.08-.18-.11-.38-.22-.57-.31-.12-.04-.22-.09-.33-.14-.05-.02-.09-.05-.14-.07v.02c-.52-.18-1.07-.3-1.65-.3C2.72.5.5,2.72.5,5.47c0,.09,0,.16,0,.24h0c0,.06,0,.11.02.17s0,.11.02.17c.09.97.38,2.02.97,3.13,1.1,2.04,2.86,3.73,5.61,6.02h0c.85.72,1.79,1.48,2.84,2.34.67-.55,1.3-1.06,1.89-1.54h0c3.29-2.71,5.33-4.52,6.55-6.79.6-1.11.89-2.15.97-3.12,0-.07,0-.13.02-.2,0-.06,0-.1.02-.16h0c0-.09,0-.16,0-.25Z"/>
    </g>
  </g>
</svg>